<?xml version="1.0" encoding="UTF-8" standalone="no"?>
<!-- Created with Inkscape (http://www.inkscape.org/) -->

<svg
   xmlns:dc="http://purl.org/dc/elements/1.1/"
   xmlns:cc="http://creativecommons.org/ns#"
   xmlns:rdf="http://www.w3.org/1999/02/22-rdf-syntax-ns#"
   xmlns:svg="http://www.w3.org/2000/svg"
   xmlns="http://www.w3.org/2000/svg"
   xmlns:sodipodi="http://sodipodi.sourceforge.net/DTD/sodipodi-0.dtd"
   xmlns:inkscape="http://www.inkscape.org/namespaces/inkscape"
   id="svg3055"
   version="1.1"
   inkscape:version="0.48.2 r9819"
   width="450"
   height="403"
   sodipodi:docname="New document 6">
  <metadata
     id="metadata3061">
    <rdf:RDF>
      <cc:Work
         rdf:about="">
        <dc:format>image/svg+xml</dc:format>
        <dc:type
           rdf:resource="http://purl.org/dc/dcmitype/StillImage" />
      </cc:Work>
    </rdf:RDF>
  </metadata>
  <defs
     id="defs3059" />
  <sodipodi:namedview
     pagecolor="#ffffff"
     bordercolor="#666666"
     borderopacity="1"
     objecttolerance="10"
     gridtolerance="10"
     guidetolerance="10"
     inkscape:pageopacity="0"
     inkscape:pageshadow="2"
     inkscape:window-width="640"
     inkscape:window-height="480"
     id="namedview3057"
     showgrid="false"
     showborder="false" />
  <rect
     style="fill:none;stroke:#000000;stroke-width:0.68120319;stroke-miterlimit:4;stroke-dasharray:none;stroke-dashoffset:0"
     id="rect3195"
     width="173.3188"
     height="49.318798"
     x="25.840607"
     y="25.840599" />
  <rect
     style="fill:#000000;fill-opacity:1;stroke:#f2f2f2"
     id="rect3171"
     width="175"
     height="47"
     x="6"
     y="16" />
  <path
     style="fill:#000000"
     d="m 30.39362,745.4271 c 0.0288,-0.1705 -0.0443,-1.3238 -0.16258,-2.5629 -0.1817,-1.9035 -0.20801,-2.4967 -0.16975,-3.8268 0.0541,-1.8831 0.14998,-2.7185 0.77799,-6.7806 0.61469,-3.9757 0.70744,-4.3295 2.01973,-7.7088 0.71583,-1.8435 1.10677,-3.0501 1.34038,-4.1375 0.1859,-0.8653 0.20987,-1.2051 0.27421,-3.8943 0.0665,-2.7814 0.144,-3.9257 0.45373,-6.6999 0.23417,-2.0975 0.0747,-3.3602 -0.75337,-5.9679 -0.5791,-1.8239 -0.81835,-2.639 -1.26878,-4.324 -0.85484,-3.198 -2.00221,-6.4202 -3.3928,-9.5284 -1.26966,-2.8377 -2.77528,-4.8999 -4.28275,-5.8656 -0.31077,-0.1991 -1.3097,-0.7552 -2.21983,-1.2357 -0.91014,-0.4805 -2.45393,-1.3156 -3.43066,-1.8557 -0.97673,-0.5401 -2.82928,-1.5575 -4.11679,-2.2609 -1.2875,-0.7035 -3.12189,-1.7577 -4.07642,-2.3427 -3.56643,-2.1859 -4.23731,-2.5454 -6.29627,-3.3741 -0.82133,-0.3305 -1.6568,-0.6733 -1.85659,-0.7616 -2.72918,-1.2071 -5.12104,-2.6595 -7.36444,-4.4719 -0.94404,-0.7626 -1.8796,-1.4224 -2.80644,-1.9792 -0.83482,-0.5015 -0.90747,-0.5424 -3.02705,-1.7041 -1.84456,-1.0109 -3.1621,-1.8002 -3.79392,-2.2726 -0.22198,-0.166 -1.00296,-0.8556 -1.73551,-1.5325 -1.65521,-1.5294 -2.43117,-2.1223 -3.30957,-2.5288 -3.43227,-1.5886 -4.69602,-2.3678 -6.55891,-4.044 -0.4549,-0.4094 -1.71171,-1.5014 -2.79291,-2.4269 -4.06723,-3.4812 -5.07904,-4.5287 -7.03055,-7.2785 -2.72618,-3.8413 -3.23138,-5.0647 -3.23027,-7.8224 10e-4,-3.5013 1.02358,-6.9434 3.09926,-10.4365 1.38089,-2.3239 2.65127,-3.6447 4.6962,-4.8827 0.89772,-0.5434 1.48958,-0.8469 4.95587,-2.5412 3.15099,-1.5402 4.00456,-2.0138 5.89265,-3.2699 1.66276,-1.1061 3.32494,-2.3421 5.61013,-4.1714 2.62637,-2.1025 2.94223,-2.3166 6.49809,-4.4045 2.16486,-1.2712 2.86359,-1.7283 4.56075,-2.9836 1.24125,-0.9181 2.10683,-1.5292 4.924,-3.4767 3.7194,-2.5712 5.35312,-3.8324 7.623,-5.8849 1.80638,-1.6335 2.25608,-2.0205 5.00989,-4.3116 0.19978,-0.1662 1.21687,-0.9877 2.26019,-1.8256 1.04333,-0.8378 2.44182,-1.9795 3.10777,-2.5371 2.87118,-2.4041 5.36038,-3.3218 6.98837,-2.5764 1.51563,0.6938 3.98941,2.764 5.41124,4.5284 1.0049,1.247 0.96631,1.0997 0.41878,1.5982 -1.05882,0.964 -2.39331,2.3848 -3.00518,3.1997 -0.35824,0.4772 -0.65134,0.8888 -0.65134,0.9147 0,0.067 0.84621,1.0741 1.93013,2.2969 1.83221,2.0669 5.85722,6.0227 6.88739,6.769 0.18937,0.1372 0.61679,0.4706 0.94976,0.7408 0.33298,0.2703 0.98682,0.801 1.45299,1.1795 1.01458,0.8237 1.836,1.3879 2.69133,1.8487 l 0.63293,0.341 -0.63293,0.6406 c -0.34816,0.3524 -1.52192,1.3555 -2.60851,2.2291 -1.5505,1.2466 -2.37555,1.9877 -3.83499,3.4449 -2.69375,2.6896 -3.62681,3.3575 -6.75169,4.8325 -1.76159,0.8315 -2.25826,1.1774 -3.57507,2.4897 -1.25118,1.2469 -2.46208,2.3352 -3.76339,3.3825 -1.03436,0.8325 -5.45418,4.1571 -6.29336,4.734 -1.2138,0.8343 -3.51428,2.7959 -3.71181,3.165 -0.0675,0.1261 -0.0133,0.1779 0.38384,0.3674 0.75652,0.3609 1.96596,0.7952 3.90521,1.4023 1.00571,0.3149 2.66937,0.8993 3.69704,1.2988 2.50365,0.9731 3.031,1.1548 4.68531,1.6138 0.77718,0.2156 2.42115,0.7031 3.65312,1.0833 2.977,0.9187 3.9731,1.1654 6.51825,1.6147 3.03496,0.5358 5.55507,0.7343 8.51609,0.671 3.12755,-0.067 4.85192,-0.3147 7.42636,-1.067 1.85296,-0.5414 2.27877,-0.6415 3.26252,-0.7671 1.19144,-0.152 1.30195,-0.1193 3.32338,0.9843 2.05088,1.1198 3.19099,1.635 4.51329,2.04 1.44289,0.4419 2.3104,0.8099 4.35895,1.8494 3.60977,1.8317 3.91869,1.982 4.74786,2.3101 0.76887,0.3042 1.30406,0.4675 3.28778,1.0034 0.40167,0.1085 1.40003,0.4916 2.21847,0.8512 2.45134,1.0772 3.13344,1.2218 4.35128,0.9224 1.1175,-0.2747 2.17116,-1.065 2.63038,-1.9728 1.2331,-2.4374 3.63698,-5.22 5.18287,-5.9994 1.09265,-0.5509 2.251,-0.8502 3.53326,-0.9128 l 0.96865,-0.047 0.40361,0.3197 c 0.54398,0.4309 1.07448,1.2469 1.73704,2.6717 0.30376,0.6531 0.83652,1.7506 1.18394,2.4387 0.82643,1.6371 0.97415,2.1069 1.16126,3.6944 0.0851,0.7222 0.26307,1.9572 0.39553,2.7445 0.13239,0.7873 0.28075,1.7765 0.32967,2.1983 0.10082,0.8682 0.0686,2.676 -0.0712,3.9957 -0.0517,0.4884 -0.15022,1.5236 -0.21891,2.3006 -0.23119,2.6153 -0.50015,4.5725 -1.45783,10.6084 -0.48619,3.064 -0.49603,3.0975 -1.21881,4.148 -0.73545,1.0689 -0.75442,1.1477 -1.1527,4.7781 -0.22247,2.0284 -0.25823,2.2412 -0.88834,5.2873 -0.58846,2.8449 -0.83474,4.3406 -0.97027,5.8926 -0.15079,1.7261 -0.42702,3.025 -1.21042,5.6909 -0.53494,1.8207 -0.84321,3.0627 -1.09183,4.3993 -0.22296,1.1985 -0.76258,3.4222 -1.15561,4.7626 -0.91417,3.1176 -1.49577,5.1665 -1.63049,5.7443 -0.0864,0.3703 -0.23143,1.5495 -0.32232,2.6204 -0.16774,1.975 -0.27857,2.6808 -0.5682,3.619 -0.19558,0.6335 -0.35679,1.6441 -0.47698,2.9901 -0.18582,2.08 -0.37721,2.8536 -1.02637,4.1479 -0.58184,1.1603 -0.9982,2.436 -1.35967,4.1664 -0.49684,2.3786 -0.89407,3.8907 -1.27548,4.8549 -0.33911,0.8576 -0.69315,2.0967 -0.81536,2.8539 -0.32014,1.9838 -0.44147,2.3897 -1.17054,3.915 -0.69219,1.4482 -0.72391,1.54 -1.04663,3.0365 -0.18308,0.8487 -0.44744,1.9475 -0.58741,2.4418 l -0.25444,0.8987 -24.20993,0 -24.20994,0 0.0524,-0.3102 z m 74.82518,-0.3154 c -0.0775,-0.8117 0.0793,-2.9854 0.32878,-4.5582 0.19801,-1.2483 1.19742,-6.3552 1.50513,-7.6912 0.1943,-0.8435 0.63794,-2.3731 1.38122,-4.7626 0.76145,-2.4477 1.38833,-5.5329 2.11587,-10.4131 0.56892,-3.8163 0.69388,-4.6124 0.84911,-5.4083 0.21544,-1.1047 0.42605,-2.6817 0.76524,-5.7312 0.29592,-2.66 0.4844,-4.1425 0.61525,-4.8388 0.25872,-1.3771 0.57426,-4.009 0.76008,-6.3411 0.40845,-5.1257 1.63614,-10.4185 4.31568,-18.6063 0.26154,-0.7991 0.842,-2.5717 1.28993,-3.9391 0.44792,-1.3674 0.85266,-2.6646 0.89939,-2.8826 0.12149,-0.5663 -0.0288,-1.4296 -0.46996,-2.7006 -0.59919,-1.7261 -1.10701,-2.612 -2.77778,-4.8461 -1.05147,-1.4058 -1.59021,-2.2022 -1.95483,-2.8896 l -0.28325,-0.5339 0.20318,-0.6695 c 0.42936,-1.4149 1.0053,-2.5702 1.59368,-3.1966 0.86259,-0.9184 2.75663,-1.3984 5.50963,-1.3961 1.59683,0 3.91208,0.2004 4.9119,0.4225 1.28169,0.2846 2.57961,1.555 3.05788,2.9929 0.33209,0.9984 0.32732,1.2109 -0.10671,4.7333 -0.46076,3.7394 -0.57014,4.9978 -0.56933,6.5467 8.1e-4,1.8001 0.0918,2.3302 0.56577,3.3061 l 0.40805,0.84 -0.27929,0.6937 c -0.39223,0.974 -0.40611,1.125 -0.22102,2.3949 0.19405,1.3311 0.30658,2.3593 0.41434,3.7848 0.13376,1.7691 0.53446,3.8583 1.72695,9.0035 1.18507,5.1132 1.2645,5.7606 1.24876,10.1709 -0.006,1.8998 0.0263,2.9613 0.11987,3.8484 0.40151,3.805 0.36503,7.7709 -0.10687,11.6054 -0.044,0.3575 -0.11785,1.3947 -0.16419,2.3048 -0.11825,2.3267 -0.30125,4.7182 -0.49103,6.4174 -0.0893,0.7991 -0.19687,1.7799 -0.23917,2.1795 -0.0423,0.3995 -0.11116,1.907 -0.15305,3.3499 -0.0462,1.591 -0.12851,2.9888 -0.20923,3.5517 -0.17517,1.2216 -0.80649,4.6246 -1.00207,5.4012 -0.0919,0.3646 -0.17557,1.0701 -0.20689,1.7427 -0.0422,0.9071 -0.10066,1.2973 -0.29609,1.9776 -0.51879,1.8059 -1.06205,3.166 -1.67997,4.2062 l -0.33064,0.5564 -11.49221,0 -11.49237,0 -0.0597,-0.6256 z m 35.83873,0.3333 c -0.0302,-0.1608 -0.0347,-1.6955 -0.01,-3.4105 0.0434,-3.0228 0.14966,-4.7182 0.50144,-8.0018 0.0642,-0.5993 0.17331,-1.7617 0.24249,-2.5831 0.2747,-3.2605 0.37632,-4.1928 0.78138,-7.1645 l 0.42097,-3.0881 -0.0974,-1.392 c -0.13804,-1.9743 -0.12197,-2.5488 0.10308,-3.6981 0.27469,-1.4022 0.569,-3.775 0.76524,-6.1695 0.29011,-3.54 0.33362,-4.0095 0.4978,-5.368 0.0885,-0.7325 0.25048,-1.8223 0.35994,-2.4216 0.28559,-1.5633 0.41878,-3.2058 0.5171,-6.377 0.0475,-1.5317 0.13085,-3.2208 0.18518,-3.7535 0.0684,-0.67 0.0989,-2.8108 0.0989,-6.9421 0,-6.2883 -0.0199,-6.779 -0.40659,-10.0094 -0.24265,-2.0269 -0.39352,-3.6674 -0.6013,-6.5384 -0.32054,-4.4295 -0.4945,-6.1254 -0.88987,-8.6776 -0.1273,-0.8213 -0.30884,-2.1653 -0.40344,-2.9867 -0.28608,-2.4822 -0.5615,-3.7813 -1.05092,-4.957 -0.34758,-0.8349 -0.70582,-1.2808 -2.21394,-2.7558 l -1.32464,-1.2955 0.0409,-0.3593 c 0.11551,-1.0143 0.57102,-2.03 1.40834,-3.1405 0.7801,-1.0346 0.66943,-1.0286 1.45501,-0.078 0.90698,1.0973 2.19134,2.756 4.05616,5.2384 2.04621,2.7238 2.55499,3.2537 4.17216,4.3455 1.03122,0.6962 3.83402,2.0658 5.99526,2.9297 0.21399,0.085 1.1531,0.6107 2.0868,1.1669 2.27949,1.358 2.98403,1.6991 5.96216,2.8867 1.40003,0.5582 2.85302,1.1465 3.22885,1.3072 1.98421,0.8485 3.62931,1.8678 4.84094,2.9996 0.94145,0.8794 1.5086,1.2883 2.87828,2.0753 1.36992,0.7872 2.03765,1.2573 2.4553,1.7287 0.61001,0.6885 2.40865,3.4945 2.78747,4.3487 0.27405,0.6179 0.41378,1.23 0.63713,2.7905 0.27381,1.9129 0.54867,2.8724 1.85611,6.4788 1.60337,4.4229 1.91883,5.5052 2.05839,7.0631 0.17832,1.9904 1.09919,7.7219 1.36452,8.4932 0.17645,0.5127 0.33644,0.8389 1.0212,2.0813 0.81948,1.4867 0.90989,1.8166 1.12663,4.1092 0.16443,1.7402 0.33459,2.4892 1.09305,4.8105 0.34815,1.0655 0.77516,2.5185 0.94879,3.2288 0.47771,1.9537 0.89351,2.8856 2.08883,4.6813 l 0.59072,0.8874 0,13.9048 0,13.9048 -25.78683,0 -25.78683,0 -0.0548,-0.2923 z m -29.96415,-89.4342 c -1.25675,-0.3715 -2.13783,-0.924 -4.17378,-2.6172 -0.75474,-0.6277 -1.89897,-1.4897 -2.54272,-1.9156 -1.73196,-1.1457 -2.32114,-1.665 -3.34017,-2.9438 -0.5514,-0.692 -1.3863,-1.9857 -1.32254,-2.0494 0.0959,-0.096 1.58876,1.0135 2.64403,1.965 3.31006,2.9847 3.53309,3.155 5.20152,3.9709 0.53712,0.2627 1.24424,0.6764 1.5714,0.9195 0.52098,0.387 3.15645,2.7633 3.15645,2.8461 0,0.088 -0.60194,0 -1.19419,-0.1755 z m 20.78267,-2.0335 c 0.35009,-0.3884 1.05777,-1.1966 1.57261,-1.796 1.45412,-1.6928 2.46475,-2.6065 3.57789,-3.2347 0.55577,-0.3136 0.60509,-0.4037 -0.64367,1.1744 -1.71089,2.162 -2.64015,3.1354 -3.64134,3.8143 -0.52186,0.3539 -1.26506,0.7484 -1.40979,0.7484 -0.0507,0 0.19429,-0.3179 0.5443,-0.7064 z m -10.97148,-2.2537 c -1.00603,-0.093 0.1093,-0.5429 2.5629,-1.0337 1.42013,-0.2842 2.01989,-0.4737 1.93481,-0.6113 -0.0939,-0.152 -0.84596,-0.4829 -1.37767,-0.6062 -0.42597,-0.099 -0.97406,-0.119 -2.70755,-0.1 -1.85546,0.02 -2.1844,0.01 -2.24809,-0.096 -0.0433,-0.07 -0.0689,-1.6764 -0.0611,-3.8342 0.0116,-3.1894 -0.007,-3.8624 -0.13214,-4.7635 -0.1206,-0.8691 -0.44106,-2.3525 -0.65126,-3.0148 -0.0443,-0.1397 0.0147,-0.157 0.70034,-0.2057 4.41416,-0.3133 5.79571,-0.4994 7.20252,-0.9701 1.12429,-0.3762 2.45062,-1.0541 3.71649,-1.8996 1.09805,-0.7333 2.14832,-1.3765 2.24777,-1.3765 0.0321,0 -0.11778,0.2633 -0.33298,0.5852 -1.14544,1.713 -1.36758,2.2497 -1.92528,4.6514 -0.7541,3.2471 -0.76024,3.2861 -0.82901,5.2168 -0.055,1.5445 -0.0865,1.8359 -0.24168,2.2366 -0.22142,0.5717 -0.77678,1.4266 -1.50989,2.3242 -0.62656,0.767 -0.91966,1.1667 -0.91966,1.2538 0,0.098 0.96995,-0.045 1.51336,-0.223 0.69009,-0.2265 1.47752,-0.6861 2.81613,-1.6436 1.24851,-0.893 1.72178,-1.3361 2.62844,-2.4608 0.71092,-0.8819 1.16836,-1.1886 1.88283,-1.2623 0.2596,-0.027 0.44219,-0.014 0.44219,0.032 0,0.1464 -1.14786,1.5212 -1.96548,2.354 -1.3763,1.4018 -2.84438,2.5372 -4.33078,3.3493 -0.66838,0.3652 -4.62824,1.6899 -5.69086,1.9038 -0.8378,0.1687 -2.06065,0.2561 -2.72434,0.1948 z m -4.94418,-2.3391 c -2.93995,-0.3408 -5.54273,-1.4788 -8.27394,-3.6177 -0.66401,-0.52 -2.80587,-2.4501 -3.08226,-2.7776 -0.0748,-0.089 -0.50467,-0.5539 -0.95525,-1.0341 -1.16845,-1.2452 -1.62597,-2.0706 -2.04968,-3.6982 -0.22933,-0.8808 -0.50096,-2.4392 -0.43638,-2.5038 0.0257,-0.026 0.48223,0.08 1.01451,0.2345 3.80802,1.1067 7.23868,1.6616 10.28147,1.6632 l 1.34175,8e-4 0.0472,0.3027 c 0.026,0.1665 0.10429,0.8657 0.17396,1.5539 0.45018,4.4449 0.62615,5.6299 0.9429,6.3502 0.0944,0.2145 0.35332,0.7134 0.57554,1.1087 0.22223,0.3953 0.48861,0.9583 0.59201,1.2512 0.17985,0.5094 0.25823,1.2319 0.13085,1.2065 -0.0333,-0.01 -0.16951,-0.025 -0.3027,-0.04 z m 19.40048,-7.0537 c -0.55561,-0.3857 -0.92926,-0.8229 -1.05236,-1.2314 -0.17347,-0.5757 0.1373,-3.6782 0.47036,-4.6963 0.28922,-0.884 0.50548,-1.1904 1.51102,-2.1408 1.14447,-1.0818 3.51646,-3.4866 3.52074,-3.5694 0.006,-0.1035 -0.9877,-0.8606 -1.45621,-1.1103 -0.52203,-0.2782 -0.81472,-0.2984 -2.41171,-0.1663 -0.50855,0.042 -0.9333,0.068 -0.94404,0.057 -0.0106,-0.011 0.20746,-0.4726 0.48473,-1.0263 0.56812,-1.1345 1.0853,-2.6144 1.3533,-3.8724 0.15006,-0.7044 0.18154,-1.1134 0.18622,-2.4216 0.003,-0.8658 -0.0208,-1.7466 -0.0533,-1.9574 l -0.059,-0.3833 0.66441,-0.332 c 2.3071,-1.1529 4.31375,-2.7227 5.38186,-4.2103 0.15199,-0.2116 0.30165,-0.3569 0.33257,-0.3228 0.0309,0.034 0.40942,0.6192 0.84119,1.3003 0.95841,1.512 1.58553,2.8065 1.81745,3.7512 0.16838,0.6859 0.17016,0.7394 0.0503,1.4965 -0.24523,1.5482 -0.87179,2.9835 -2.50002,5.7266 -1.26466,2.1307 -1.45387,2.5443 -1.44789,3.1647 0.004,0.3947 0.0784,0.7247 0.30101,1.3319 0.48198,1.3146 0.5334,1.6674 0.44017,3.0211 -0.11059,1.605 -0.28672,2.285 -0.77008,2.9729 -0.4518,0.6431 -1.8532,2.0677 -2.65202,2.6961 -0.97826,0.7695 -3.27833,2.2542 -3.4757,2.2436 -0.0418,0 -0.28172,-0.1468 -0.533,-0.3213 z m -38.872,-7.8073 c -0.62607,-0.6992 -1.66608,-1.7843 -2.31097,-2.4111 -2.16002,-2.0995 -2.72071,-3.3555 -3.36503,-7.5378 -0.32748,-2.1256 -0.40627,-5.3296 -0.13093,-5.3266 0.18704,0 1.47656,0.3854 1.87992,0.559 0.22788,0.098 0.51646,0.2848 0.64133,0.4151 l 0.22691,0.2369 0.0546,2.078 c 0.0731,2.7864 0.0995,2.8619 1.57148,4.4921 0.79599,0.8816 1.51595,1.4404 1.98978,1.5444 0.14296,0.031 0.21004,0.079 0.15765,0.1112 -0.14183,0.088 -0.27122,0.9511 -0.21141,1.4099 0.0296,0.2272 0.17501,0.9216 0.32305,1.5431 0.31578,1.3261 0.57272,4.1572 0.37721,4.1572 -0.0358,0 -0.57748,-0.5721 -1.20356,-1.2714 z m 5.10312,-1.0361 c -0.8512,-0.078 -1.71629,-0.2257 -1.91293,-0.3259 -0.23215,-0.1183 -0.53034,-0.4767 -0.73707,-0.8859 -0.0695,-0.1375 -0.21625,-0.7005 -0.32611,-1.2512 -0.10986,-0.5506 -0.24144,-1.1099 -0.29237,-1.2429 -0.13311,-0.3478 -0.46399,-0.7567 -0.75676,-0.9352 -0.2278,-0.139 -0.2349,-0.1543 -0.0714,-0.1546 0.17807,-3e-4 0.18162,-0.019 0.18162,-0.9509 0,-1.6332 0.24628,-3.0248 0.69057,-3.9015 l 0.20423,-0.4029 -0.49636,-0.5408 c -0.63511,-0.6921 -0.99545,-1.1462 -0.90949,-1.1462 0.0371,0 0.32176,0.073 0.63238,0.1626 0.89665,0.2581 2.68761,0.6122 4.47712,0.8851 0.90868,0.1386 1.66609,0.2659 1.68312,0.2829 0.017,0.017 -0.15434,0.3597 -0.38076,0.7614 -0.2265,0.4017 -0.41176,0.7597 -0.41176,0.7955 0,0.087 0.74013,0.5292 1.29501,0.7734 0.64279,0.2828 1.46098,0.5237 2.24171,0.6598 0.77905,0.1359 1.28154,0.06 2.15333,-0.3274 0.63786,-0.283 1.81703,-1.0554 1.81703,-1.1901 0,-0.059 -0.16144,-0.3762 -0.35872,-0.7059 -0.19737,-0.3298 -0.34953,-0.6088 -0.33814,-0.6202 0.0113,-0.011 0.52154,-0.093 1.13381,-0.1817 0.61219,-0.089 1.23657,-0.1843 1.38744,-0.2126 l 0.27437,-0.051 0,1.4418 c 8e-4,3.8212 0.39384,6.428 1.25392,8.3153 l 0.26428,0.5799 -0.21439,0.085 c -0.52227,0.2082 -1.08708,0.2643 -2.43423,0.2417 -2.17988,-0.036 -2.62409,-0.035 -6.29627,0.02 -1.88686,0.028 -3.57595,0.038 -3.75354,0.022 z m 15.45814,-0.1977 c 0,-0.046 0.16079,-0.7089 0.35727,-1.4732 0.44364,-1.7254 0.57247,-2.7883 0.4497,-3.7095 -0.1386,-1.039 -0.45341,-2.6971 -0.73545,-3.8729 -0.14143,-0.5897 -0.27454,-1.1759 -0.29585,-1.3027 l -0.0387,-0.2306 0.95889,0.061 c 0.52735,0.033 1.42343,0.083 1.99115,0.1095 l 1.03234,0.049 -0.6603,0.3633 c -0.36316,0.1998 -0.8198,0.5035 -1.01466,0.675 l -0.35429,0.3117 0.0227,0.9319 0.0227,0.9319 0.44397,0.1537 c 0.96914,0.3355 2.45893,0.7054 3.22781,0.8014 0.64238,0.08 0.99335,0.081 1.69321,0 1.68675,-0.1876 2.22694,-0.464 3.6758,-1.8809 l 0.88794,-0.8683 -0.27147,-0.2806 c -0.14933,-0.1544 -0.49442,-0.3783 -0.76685,-0.4977 -1.30139,-0.5701 -1.58787,-0.7191 -1.79137,-0.9315 l -0.21932,-0.229 0.1926,-0.044 c 0.10591,-0.024 0.61034,-0.1355 1.1209,-0.2476 1.79169,-0.3937 2.56371,-0.7314 3.29052,-1.4393 0.41039,-0.3998 0.74554,-1.0392 0.74554,-1.4225 0,-0.1573 0.25226,-0.238 1.159,-0.3708 0.37075,-0.054 0.38932,-0.048 0.33943,0.1087 -0.029,0.091 -0.0856,1.304 -0.12576,2.6945 -0.057,1.9719 -0.1072,2.6881 -0.22804,3.2548 l -0.1549,0.7264 0.23022,0.6556 c 0.12665,0.3605 0.36195,0.9599 0.52299,1.3319 0.886,2.0471 1.46711,3.68 1.34748,3.7864 -0.13053,0.1162 -0.63374,0.2429 -1.14713,0.289 -0.34444,0.031 -0.96704,-0.012 -1.77417,-0.1218 -0.68388,-0.093 -1.4542,-0.1695 -1.71178,-0.1695 -0.47384,0 -2.65581,0.3535 -7.2156,1.1689 -2.25866,0.4039 -4.65633,0.7684 -5.05453,0.7684 -0.0836,0 -0.15199,-0.038 -0.15199,-0.083 z M 97.10405,619.2781 c -0.30206,-0.6883 -0.61518,-1.6646 -0.74788,-2.3317 -0.2747,-1.3806 -0.31611,-2.1212 -0.33144,-5.933 -0.008,-2.1088 -0.0428,-3.9614 -0.0763,-4.1168 -0.0559,-0.2598 -0.0401,-0.2946 0.19737,-0.4338 0.45389,-0.266 1.13825,-0.2592 2.03361,0.02 1.88856,0.5892 2.71926,0.6752 6.76251,0.7003 3.64158,0.023 3.5561,0.029 5.61013,-0.404 1.43313,-0.302 1.3319,-0.3408 1.3319,0.5092 0,0.3931 -0.0236,0.9407 -0.0525,1.2169 -0.0788,0.7532 -0.12713,0.7726 -1.92197,0.7726 l -1.45621,0 -0.74668,0.4026 -0.74667,0.4025 0,0.5661 c 0,0.3114 0.0539,0.8931 0.11939,1.2926 0.33984,2.074 1.02387,3.4717 2.26924,4.6367 l 0.54753,0.5122 0.90028,-0.048 c 1.02839,-0.055 1.1523,-0.01 1.35201,0.4887 0.0674,0.1684 0.14917,0.5197 0.18178,0.7806 l 0.0592,0.4743 -2.33147,-0.053 c -1.28234,-0.029 -3.40305,-0.074 -4.71276,-0.1002 l -2.38128,-0.047 -1.17045,0.2462 c -0.64376,0.1354 -1.69717,0.3566 -2.34092,0.4914 -0.64376,0.1349 -1.39664,0.2687 -1.67311,0.2974 l -0.50274,0.052 -0.17298,-0.3944 z m -3.97908,-0.8787 c -1.27418,-0.3554 -2.40832,-1.3119 -3.01502,-2.5427 -0.39456,-0.8005 -0.46842,-1.1129 -0.92579,-3.915 -0.28737,-1.7602 -0.3425,-2.281 -0.34194,-3.2288 8.1e-4,-1.453 0.10946,-1.854 0.90215,-3.3298 l 0.61784,-1.1503 0.70921,0 c 0.81561,0 0.82675,0.01 1.11945,0.8519 0.29059,0.8374 0.40732,1.571 0.48085,3.0228 0.079,1.5591 0.51323,4.4792 0.85476,5.7482 0.58023,2.1558 0.6021,2.2676 0.60339,3.0875 8.1e-4,0.4457 -0.0468,0.9739 -0.10566,1.1737 -0.12391,0.4208 -0.25532,0.4621 -0.89924,0.2825 z m 23.9438,-0.019 -0.50612,-0.029 0.0513,-1.3078 c 0.10583,-2.6991 -0.30747,-6.3125 -1.06738,-9.3329 -0.1499,-0.5956 -0.25629,-1.0991 -0.23643,-1.1189 0.0198,-0.02 0.98617,0.011 2.14751,0.069 2.31888,0.1156 3.55593,0.053 4.9604,-0.2512 0.39957,-0.086 1.56196,-0.2505 2.58309,-0.3644 1.02112,-0.1139 2.21701,-0.2797 2.6575,-0.3683 1.28686,-0.259 2.43585,-0.7654 3.05264,-1.3454 0.12165,-0.1144 0.24265,-0.1865 0.26888,-0.1603 0.0262,0.026 0.008,0.5069 -0.0396,1.0681 -0.10615,1.2424 -0.11099,3.4774 -0.0101,4.6966 0.10244,1.2381 0.28664,1.9483 1.09418,4.2187 0.38326,1.0775 0.67862,2.0067 0.65634,2.0648 -0.10001,0.2605 -2.26907,0.6108 -5.25826,0.8492 -1.15432,0.092 -2.29854,0.1984 -2.54273,0.2363 -0.24418,0.038 -0.4551,0.058 -0.46874,0.046 -0.0136,-0.013 0.29802,-0.5448 0.6925,-1.1824 1.92254,-3.1072 2.50051,-4.51 2.53845,-6.1617 0.0149,-0.6468 -0.005,-0.7663 -0.16241,-0.9877 -0.0987,-0.1385 -0.35163,-0.3367 -0.56215,-0.4404 -0.3668,-0.1806 -0.44897,-0.1877 -1.95692,-0.168 -2.47403,0.032 -4.47382,0.1645 -5.24067,0.3465 -0.86388,0.2049 -1.62137,0.5775 -2.12136,1.0433 l -0.39239,0.3656 0.0834,2.018 c 0.12124,2.9356 0.3446,4.3403 0.89633,5.6369 0.12996,0.3053 0.23627,0.5695 0.23627,0.5871 0,0.033 -0.45115,0.023 -1.35362,-0.028 z m 19.22782,-4.4001 c 0.38625,-1.0309 0.4899,-1.7022 0.48933,-3.1683 -8e-4,-1.5054 -0.0977,-2.1354 -0.53348,-3.4577 -0.28681,-0.8704 -0.89197,-2.1474 -1.35612,-2.8614 -0.1813,-0.279 -0.32967,-0.5351 -0.32967,-0.5691 0,-0.034 0.3178,-0.1071 0.70631,-0.1625 1.75973,-0.2509 3.11141,-0.719 4.08725,-1.4153 0.80705,-0.576 0.97818,-0.8488 1.74503,-2.7832 l 0.45955,-1.1591 0.55713,0.4804 c 0.81142,0.6996 1.49513,1.4597 1.74165,1.9363 0.20196,0.3905 1.06875,3.2177 1.42998,4.664 0.63261,2.5333 0.51056,4.8568 -0.33871,6.4517 -0.24725,0.4642 -0.27728,0.4897 -0.74199,0.628 -0.50152,0.1492 -1.57681,0.363 -3.98618,0.7925 -1.42885,0.2547 -2.96594,0.6569 -3.66887,0.96 -0.21455,0.093 -0.40368,0.1682 -0.42015,0.1682 -0.0165,0 0.055,-0.227 0.15894,-0.5045 z m -74.74237,-8.1251 c -0.17758,-0.035 -0.59532,-0.1214 -0.92829,-0.1925 -0.70599,-0.1507 -1.21155,-0.1942 -3.51138,-0.3025 -1.27031,-0.06 -1.91769,-0.1292 -2.58308,-0.277 -3.60324,-0.8006 -5.08665,-1.0398 -7.30528,-1.1783 -0.77694,-0.049 -1.5446,-0.1219 -1.7058,-0.163 -0.23095,-0.059 -1.03961,-0.5402 -1.63768,-0.9746 -0.17581,-0.1277 1.33045,-1.5653 2.33277,-2.2264 1.33521,-0.8806 2.59301,-1.29 4.20348,-1.3681 1.65043,-0.08 2.59043,0.1852 4.19323,1.183 2.49905,1.5557 2.99718,1.7629 4.76256,1.9806 0.87647,0.1082 2.22395,-0.2612 3.27817,-0.8984 0.87446,-0.5287 1.58739,-1.2504 2.54175,-2.573 1.61056,-2.2322 2.27667,-3.3144 3.30401,-5.3677 0.58838,-1.176 0.75232,-1.4289 1.40084,-2.1612 0.40401,-0.4561 0.8106,-0.9784 0.90351,-1.1606 0.16499,-0.3234 0.31328,-1.1986 0.2031,-1.1986 -0.0304,0 -0.71285,0.073 -1.51635,0.1632 -0.8035,0.09 -1.47704,0.147 -1.49682,0.1273 -0.0197,-0.02 -0.0559,-0.3291 -0.0805,-0.6875 l -0.0446,-0.6516 -0.64222,-0.4119 c -0.66401,-0.426 -1.26159,-0.7186 -1.95725,-0.9582 l -0.40263,-0.1388 -0.7738,0.9761 c -0.95889,1.2096 -1.60861,1.816 -2.29135,2.1385 -0.89391,0.4224 -1.34192,0.9293 -2.05993,2.3308 -0.3329,0.6499 -0.34912,0.667 -0.59621,0.6293 -0.13973,-0.021 -0.52646,-0.06 -0.85944,-0.086 -0.96559,-0.076 -1.74737,-0.3464 -2.14129,-0.7403 -0.24782,-0.2479 -0.0898,-1.5556 0.31925,-2.6425 0.31223,-0.8295 0.80923,-1.7344 1.63872,-2.9835 0.65473,-0.986 0.93548,-1.3163 2.06776,-2.4325 0.72052,-0.7103 1.52248,-1.5429 1.78208,-1.8503 0.53551,-0.634 1.26023,-1.7178 1.44362,-2.1592 l 0.12319,-0.2963 0.73327,0.2358 c 0.84128,0.2705 1.36233,0.2948 1.82406,0.085 0.38036,-0.1728 1.19847,-1.0325 1.96395,-2.0637 0.59007,-0.795 2.18141,-3.1842 2.20797,-3.315 0.0315,-0.1554 -1.8076,-0.3665 -3.60792,-0.4143 -1.39834,-0.037 -1.99043,-0.019 -2.78489,0.085 -1.849,0.2429 -3.56094,0.7844 -4.88364,1.5447 -0.35517,0.2042 -0.90004,0.5003 -1.21082,0.6581 -0.90488,0.4595 -2.07098,1.1859 -3.67282,2.288 -1.76037,1.2111 -2.47475,1.6473 -4.31859,2.637 -2.07502,1.1139 -3.67233,1.7354 -7.95105,3.0935 -0.73254,0.2325 -2.18553,0.7292 -3.22885,1.1038 -2.57283,0.9236 -4.553,1.5559 -4.87274,1.5559 -0.24774,0 0.86154,-0.8373 1.4466,-1.0919 0.17509,-0.076 1.00854,-0.3669 1.85207,-0.646 6.98046,-2.3093 11.56842,-4.3491 16.77575,-7.4584 3.05603,-1.8248 6.12086,-3.4676 7.69363,-4.124 1.27733,-0.5332 1.48987,-0.5709 3.662,-0.6494 1.34054,-0.048 2.14671,-0.1137 2.50236,-0.2027 1.1862,-0.2968 1.88888,-0.2512 3.64514,0.2364 l 0.6988,0.194 0.7365,-0.35 c 0.40514,-0.1925 1.31092,-0.6967 2.01303,-1.1204 0.70203,-0.4237 1.3022,-0.7704 1.3336,-0.7704 0.0314,0 0.0335,0.2997 0.005,0.666 -0.0479,0.6089 -0.0376,0.6815 0.12003,0.8475 0.2081,0.2194 0.1901,0.2191 1.49577,0.024 0.57595,-0.086 1.05947,-0.144 1.07456,-0.129 0.015,0.015 -0.15652,0.3938 -0.38125,0.8416 -0.22472,0.4478 -0.40861,0.8369 -0.40861,0.8646 0,0.028 0.28689,0.037 0.63754,0.021 0.62478,-0.028 0.67128,-0.046 2.32074,-0.8668 2.171,-1.0805 3.17089,-1.4704 4.66989,-1.8206 0.67281,-0.1572 2.01851,-0.304 2.50236,-0.273 0.40296,0.026 0.40183,0.026 -0.76686,0.4258 -1.77102,0.605 -4.00192,1.8006 -4.51627,2.4204 -0.13021,0.1569 0.20261,0.5135 1.81203,1.9417 2.39314,2.1237 3.24645,3.1723 3.83394,4.7112 0.76588,2.0065 0.90593,2.3538 0.963,2.3891 0.13723,0.085 3.09333,-1.9072 4.63115,-3.1209 1.0585,-0.8353 2.85051,-2.6343 3.01914,-3.0308 0.18404,-0.4329 0.16539,-1.7776 -0.0481,-3.4741 l -0.17565,-1.3961 0.16564,-0.2326 c 0.0911,-0.128 0.34185,-0.362 0.5573,-0.5201 0.66183,-0.4858 0.66788,-0.4403 -0.152,-1.1414 l -0.73239,-0.6265 0.0231,-0.6921 0.0232,-0.6922 1.80614,-0.1394 c 0.99335,-0.077 1.82599,-0.1592 1.85037,-0.1835 0.1369,-0.1369 0.10203,-2.2875 -0.0609,-3.7564 -0.28616,-2.5801 -0.33104,-3.2318 -0.27631,-4.0114 l 0.0521,-0.7422 0.45341,-0.057 c 1.02452,-0.1293 2.09222,0.2388 3.26712,1.1263 1.0116,0.7641 0.94412,0.739 1.94885,0.725 l 0.88794,-0.012 0.50774,0.6182 c 0.27929,0.34 0.74029,0.8646 1.02443,1.1658 0.58725,0.6224 0.77936,1.044 0.97495,2.14 0.13908,0.779 0.16782,2.5674 0.055,3.4275 -0.0617,0.4706 -0.0525,0.5625 0.0668,0.6705 0.22489,0.2035 0.6159,1.0117 0.7122,1.4721 0.20875,0.9976 0.0199,2.2775 -0.55608,3.7697 -0.53906,1.3965 -0.58749,1.6157 -0.48127,2.1795 0.1319,0.7002 0.49442,1.4025 1.20986,2.344 l 0.62865,0.8272 -0.39295,0.6134 c -0.61832,0.965 -0.59984,0.8968 -0.34274,1.2648 0.18509,0.2649 0.26226,0.3159 0.42766,0.2827 1.31858,-0.2654 1.84408,-0.3153 3.3283,-0.316 0.87607,-8e-4 1.61871,0.025 1.65019,0.057 0.0316,0.032 -0.14441,0.2653 -0.39102,0.5194 -0.57239,0.5898 -0.92022,1.1102 -1.25126,1.8715 -0.14505,0.3338 -0.29213,0.6162 -0.32684,0.6275 -0.0347,0.011 -0.55843,-0.063 -1.16384,-0.1651 l -1.10071,-0.1857 -0.4694,1.1296 c -0.5481,1.3188 -0.95994,1.9757 -1.45032,2.3131 -0.46988,0.3232 -1.36023,0.6965 -2.78044,1.1655 -0.64376,0.2126 -1.45258,0.5142 -1.79734,0.6702 l -0.62697,0.2837 0.29334,0.1993 c 0.75152,0.5106 2.07059,0.9669 4.13003,1.4286 0.69856,0.1566 1.54743,0.3606 1.88621,0.4534 0.60646,0.1659 0.61696,0.1732 0.66507,0.4646 0.13165,0.7959 -0.0507,1.7991 -0.4828,2.6559 -0.41224,0.8174 -0.45083,0.8334 -0.67814,0.2819 -0.10477,-0.2543 -0.31255,-0.7314 -0.4618,-1.0602 l -0.27131,-0.5979 -0.23821,0.275 c -0.76305,0.8806 -1.39373,2.1076 -1.80347,3.5087 -0.20003,0.6837 -0.79866,3.434 -0.75531,3.4702 0.0107,0.01 0.16943,0.092 0.35259,0.1843 1.34877,0.68 2.60197,0.7586 3.43162,0.2154 l 0.29359,-0.1922 0.0478,0.2171 c 0.0263,0.1194 0.13699,0.5435 0.24588,0.9423 0.10898,0.3989 0.18154,0.7417 0.16136,0.7619 -0.0202,0.02 -2.04604,0.029 -4.50199,0.019 -2.45586,-0.01 -5.26109,0.02 -6.23394,0.067 -1.96831,0.095 -2.3929,0.043 -3.02027,-0.3722 -0.48586,-0.3215 -0.62712,-0.615 -0.73456,-1.5259 -0.18098,-1.535 0.0305,-5.326 0.37374,-6.6978 0.0667,-0.2664 0.4614,-1.1745 0.87728,-2.0181 0.41579,-0.8435 0.74756,-1.5435 0.73722,-1.5555 -0.0103,-0.012 -0.28753,0.1029 -0.6159,0.2552 -0.32837,0.1523 -0.90577,0.4131 -1.28315,0.5794 -1.09821,0.4841 -1.76327,0.9731 -2.14412,1.5764 -0.51177,0.8107 -1.02072,2.9055 -1.17481,4.8354 -0.1181,1.4794 -0.0597,1.7343 0.81512,3.5517 0.35251,0.7326 0.69687,1.5484 0.76516,1.813 0.13674,0.5296 0.16564,1.3001 0.0514,1.3706 -0.12415,0.077 -1.51587,-0.6693 -2.17036,-1.1633 -2.24914,-1.6979 -3.70026,-4.4223 -3.7382,-7.0182 -0.0116,-0.7965 0.0918,-1.0021 0.88374,-1.7565 l 0.60912,-0.5801 -0.23797,-0.099 c -0.13085,-0.055 -0.42653,-0.1811 -0.65699,-0.2815 l -0.4191,-0.1824 0.0851,-0.3093 c 0.0468,-0.1702 0.2269,-0.6657 0.40021,-1.1012 0.95631,-2.4032 2.17924,-4.0097 3.9145,-5.1425 0.71753,-0.4684 1.42498,-0.7565 2.37999,-0.9692 0.84103,-0.1874 1.07061,-0.2913 1.39317,-0.6306 0.26509,-0.2789 0.30763,-0.4608 0.54059,-2.3139 0.24563,-1.9529 0.31578,-2.3099 0.44009,-2.2394 0.0582,0.033 0.54858,0.4567 1.08982,0.9417 l 0.98399,0.8817 0.36155,-0.1956 c 0.1989,-0.1076 0.37479,-0.2161 0.39094,-0.2412 0.0451,-0.07 -0.67378,-1.3 -0.8969,-1.5343 -0.31869,-0.3346 -0.98786,-0.5025 -2.16519,-0.5431 l -1.04178,-0.036 0.0466,1.049 0.0467,1.0489 -0.61929,0.4317 c -0.34057,0.2374 -1.19589,0.8633 -1.90067,1.3908 -1.56971,1.1747 -2.55305,1.8266 -3.40038,2.254 -0.63738,0.3215 -1.87298,0.7875 -2.08802,0.7875 -0.18558,0 -0.20463,-0.4877 -0.0519,-1.3277 0.14232,-0.782 0.14199,-0.806 -0.0158,-1.2867 -0.18445,-0.562 -0.52315,-1.2607 -0.61033,-1.2592 -0.10752,0 -0.92717,1.1615 -1.12736,1.5951 -0.23086,0.5 -0.22351,0.5814 0.1964,2.1923 0.38456,1.4754 0.38383,1.8353 -0.006,2.9922 -0.5661,1.6788 -1.09668,2.5061 -1.9022,2.966 -1.0639,0.6074 -2.51769,1.5078 -3.58063,2.2176 l -1.19476,0.7979 -0.29858,-0.1805 c -0.73223,-0.4426 -1.23714,-0.8177 -1.17418,-0.8724 0.0375,-0.033 0.19543,-0.109 0.35082,-0.1695 1.25182,-0.4876 2.01222,-1.3142 2.01626,-2.1921 0.002,-0.3345 -0.0292,-0.4027 -0.26057,-0.5773 -0.29996,-0.2264 -1.42046,-0.583 -1.51587,-0.4825 -0.0644,0.068 -0.48602,1.393 -0.64569,2.0294 -0.0499,0.1989 -0.12875,0.3373 -0.1838,0.3229 -0.206,-0.054 -1.66706,-0.9172 -1.66875,-0.986 -8.1e-4,-0.04 0.32756,-0.4132 0.73004,-0.8292 0.734,-0.7587 1.19451,-1.504 1.09297,-1.7686 -0.11794,-0.3073 -1.23003,-0.5418 -2.03563,-0.4292 -0.64489,0.09 -1.14956,0.3124 -1.56842,0.6909 l -0.33927,0.3065 0.0358,1.0556 0.0358,1.0556 -0.6515,0.2273 c -0.8504,0.2966 -2.06526,0.8962 -2.78343,1.3736 -0.6884,0.4577 -1.57383,1.3094 -1.92844,1.855 -0.28083,0.4321 -0.31182,0.6766 -0.16975,1.339 0.0832,0.3881 0.10098,0.4098 0.3027,0.3688 0.62131,-0.1261 1.80864,-0.2173 3.76597,-0.2892 1.19872,-0.044 2.70546,-0.1204 3.34816,-0.1696 1.63961,-0.1255 2.66905,0 3.88932,0.4589 0.75773,0.2874 2.08584,1.2516 2.08584,1.5142 0,0.089 -1.66367,0.015 -3.43066,-0.1528 -1.69668,-0.1608 -2.41058,-0.1446 -3.75354,0.085 -1.41287,0.2417 -1.81558,0.2468 -3.67984,0.046 -1.42296,-0.1531 -2.44279,-0.211 -3.20545,-0.1821 -0.34661,0.013 -0.42806,0.055 -0.77549,0.4029 -0.8194,0.8194 -0.91796,1.7208 -0.45171,4.1322 0.15539,0.8036 0.28252,1.5092 0.28252,1.5681 0,0.083 -0.32853,0.1181 -1.47316,0.1568 -2.91469,0.099 -4.86927,0.1207 -5.18635,0.059 z m 10.16863,-0.1666 c -0.63641,-0.091 -1.39293,-0.2889 -1.8486,-0.4843 -0.45535,-0.1951 -1.25691,-0.7032 -1.25691,-0.7966 0,-0.038 0.68105,-0.094 1.51352,-0.1247 3.79964,-0.1383 5.99033,-0.3545 7.60799,-0.7507 0.80471,-0.1971 1.813,-0.6044 3.15184,-1.2733 0.67015,-0.3349 1.25845,-0.6088 1.3072,-0.6088 0.0939,0 1.10524,0.7375 1.10871,0.8084 0.004,0.091 -1.3788,0.9026 -2.17746,1.2777 -0.46616,0.2189 -1.57406,0.6712 -2.462,1.0052 -1.46331,0.5503 -1.72776,0.6234 -2.82524,0.7809 -1.33715,0.192 -3.36447,0.2738 -4.11905,0.1662 z m 43.45156,-3.7357 c 0.17016,-1.131 0.14554,-4.0635 -0.0557,-6.6343 l -0.17016,-2.1743 0.27623,-0.4161 c 0.32353,-0.4872 0.95767,-1.0466 1.58318,-1.3963 0.63431,-0.3547 1.75932,-0.7023 3.38804,-1.0467 1.37864,-0.2916 1.45718,-0.2991 3.06967,-0.2929 1.75068,0.01 2.29773,0.089 3.0222,0.4535 0.8249,0.4153 1.48923,1.2351 2.06905,2.5533 0.41192,0.9366 0.64464,1.7717 1.04098,3.736 0.40071,1.9856 0.66257,2.9849 0.98755,3.769 0.1344,0.3241 0.22699,0.6067 0.20576,0.628 -0.0212,0.021 -0.3069,-0.01 -0.63488,-0.061 -0.77145,-0.1296 -3.5096,-0.1259 -4.90115,0.01 -0.59185,0.056 -1.09289,0.086 -1.11331,0.065 -0.0205,-0.021 0.0555,-0.247 0.16887,-0.5034 0.36849,-0.8333 0.47771,-1.3813 0.47424,-2.3792 -0.002,-0.7814 -0.0371,-1.0305 -0.21682,-1.574 -0.60573,-1.8323 -1.31083,-2.355 -3.29222,-2.4406 -0.98383,-0.043 -1.62863,0.038 -3.25791,0.4054 l -0.80608,0.1819 -0.13844,0.8056 c -0.43,2.5029 -0.30101,4.6881 0.36559,6.1933 l 0.20543,0.4637 -0.17702,0.039 c -0.44574,0.098 -1.96605,0.3652 -2.07914,0.3653 -0.11349,1e-4 -0.11487,-0.075 -0.014,-0.7466 z m 19.69091,-4.4521 c 0.10405,-2.6291 -0.52945,-4.6403 -2.25705,-7.1659 -1.092,-1.5964 -1.084,-1.5777 -1.13357,-2.6495 -0.0476,-1.0314 -0.26888,-2.2328 -0.57837,-3.1416 -0.1122,-0.3294 -0.19292,-0.6099 -0.17944,-0.6234 0.0136,-0.014 0.29496,-0.082 0.62543,-0.1533 0.88608,-0.1899 1.52983,-0.1718 2.45748,0.069 0.44397,0.1154 1.31576,0.2845 1.93731,0.3759 1.49448,0.2198 1.88307,0.2978 2.73193,0.5479 0.65457,0.1929 0.73731,0.241 0.99675,0.579 0.49999,0.6517 1.04227,1.9156 1.59546,3.7186 0.29285,0.9546 0.72964,2.2804 0.97051,2.9464 0.55625,1.5376 0.75918,2.2767 0.82085,2.9897 0.0554,0.6409 -0.0843,1.0296 -0.50919,1.4168 -0.61315,0.5586 -1.08013,0.7392 -2.36973,0.9163 -1.07182,0.1472 -2.18803,0.413 -3.84742,0.916 l -1.30591,0.396 0.045,-1.138 z m -13.38529,-11.8495 c -0.19147,-0.3664 -0.54172,-0.7834 -1.25279,-1.4912 -0.54285,-0.5404 -1.03994,-1.0852 -1.10459,-1.2108 -0.16823,-0.3265 -0.62301,-1.8121 -0.5774,-1.886 0.0446,-0.072 0.73222,-0.2832 2.09698,-0.6437 1.43764,-0.3798 2.83808,-0.8522 3.43065,-1.1573 0.28858,-0.1486 0.95219,-0.4937 1.47478,-0.7668 0.82311,-0.4303 1.00845,-0.4967 1.3872,-0.4967 0.38286,0 0.50063,0.043 0.94694,0.3484 0.9161,0.6262 1.31067,1.3431 1.72202,3.1293 0.11261,0.4891 0.18373,0.9234 0.15798,0.9651 -0.0782,0.1266 -0.74482,0.4906 -1.34748,0.7359 -0.70026,0.285 -1.51191,0.4942 -2.72701,0.7031 -1.3453,0.2313 -1.84077,0.4789 -3.03311,1.5158 -0.9944,0.8647 -0.86969,0.8377 -1.17417,0.2549 z m 1.566,-8.1945 c 0.0236,-0.079 0.19155,-0.5323 0.37341,-1.0067 0.45923,-1.1983 0.45382,-1.5552 -0.0408,-2.7101 -0.20423,-0.4768 -0.69614,-1.6822 -1.09321,-2.6787 -0.39699,-0.9964 -0.85888,-2.1043 -1.02645,-2.462 l -0.30456,-0.6503 -0.67863,0.04 -0.67862,0.04 -0.24758,0.7906 c -0.13617,0.4348 -0.27332,0.7647 -0.30488,0.7332 -0.11713,-0.1171 -0.0513,-1.2665 0.14368,-2.5059 0.23571,-1.4992 0.24838,-1.863 0.0734,-2.1128 -0.19696,-0.2812 -0.50499,-0.3712 -0.69186,-0.2021 -0.23668,0.2142 -0.59782,0.892 -0.92055,1.7276 -0.55649,1.4409 -0.92014,2.0134 -1.27911,2.0134 -0.12512,0 -0.20915,-0.062 -0.24789,-0.1816 -0.0322,-0.1 -0.0762,-0.9445 -0.0977,-1.8768 l -0.0391,-1.6951 -0.25483,-0.2697 c -0.14013,-0.1483 -0.54842,-0.4499 -0.90731,-0.6702 -0.62575,-0.3842 -0.65844,-0.4191 -0.79406,-0.8494 -0.0778,-0.2468 -0.39359,-1.0499 -0.70187,-1.7847 -0.30819,-0.7348 -0.54777,-1.3739 -0.53227,-1.4202 0.0394,-0.1184 1.24892,1.3601 1.92625,2.3545 l 0.56626,0.8314 0.29592,-0.1779 c 2.5554,-1.5361 4.86766,-2.3467 7.68193,-2.693 1.42537,-0.1754 1.74358,-0.2415 3.1051,-0.6453 0.6645,-0.197 1.21833,-0.348 1.23084,-0.3356 0.0124,0.013 -0.49724,0.2673 -1.13276,0.5663 l -1.15536,0.5436 -0.219,0.6725 c -0.21819,0.6699 -0.22061,0.6733 -0.65336,0.885 -0.8667,0.424 -1.39083,1.1241 -1.67093,2.2316 -0.14344,0.5673 -0.16459,0.8383 -0.13319,1.7068 0.0205,0.5679 0.056,1.0513 0.079,1.0743 0.023,0.023 0.35945,-0.1043 0.74772,-0.2828 0.38827,-0.1786 0.71971,-0.3246 0.73658,-0.3246 0.0168,0 0.008,0.445 -0.0186,0.9888 -0.0822,1.6548 0.15612,3.0486 1.14229,6.6797 0.24717,0.9101 0.47045,1.8029 0.49611,1.9839 0.0438,0.3088 0.0274,0.344 -0.26508,0.5707 -0.43606,0.3379 -0.81069,0.5546 -1.28041,0.7406 -0.22198,0.088 -0.59887,0.2374 -0.83756,0.3321 -0.40102,0.1592 -0.43073,0.1613 -0.39109,0.028 z m -40.1394,-7.809 c 0.33208,-0.2422 0.95679,-0.6508 1.38824,-0.9081 0.43146,-0.2573 0.78566,-0.5055 0.78703,-0.5516 0.002,-0.046 -0.10001,-0.2066 -0.22529,-0.3567 l -0.22796,-0.273 -1.22639,0.1469 c -0.67451,0.081 -1.24618,0.1271 -1.2704,0.1029 -0.06,-0.06 0.83555,-0.7827 1.1364,-0.9171 0.29407,-0.1315 3.6959,-0.9463 4.7389,-1.1351 0.93984,-0.1701 2.72758,-0.1887 3.48385,-0.036 l 0.55424,0.1118 1.47017,1.4219 c 0.80859,0.782 1.46542,1.4299 1.45961,1.4396 -0.006,0.01 -0.46278,-0.022 -1.0154,-0.07 -1.18991,-0.1041 -3.1692,-0.043 -4.35475,0.1348 -0.82344,0.1233 -1.16917,0.1997 -3.63246,0.8034 -1.42231,0.3486 -2.4938,0.5269 -3.16581,0.5269 l -0.50378,0 0.6038,-0.4403 z m 15.23461,-3.8364 c -0.38779,-0.305 -0.45131,-0.6391 -0.50096,-2.6352 -0.0253,-1.0155 -0.0655,-2.3821 -0.0894,-3.037 -0.0292,-0.8011 -0.0159,-1.1906 0.0408,-1.1906 0.14586,0 0.56602,0.6548 0.69477,1.0827 0.068,0.2259 0.17766,0.792 0.24386,1.2582 0.0661,0.4662 0.20995,1.3434 0.31957,1.9494 0.27897,1.5416 0.24596,2.2015 -0.12875,2.5762 -0.1976,0.1977 -0.32498,0.1968 -0.5799,0 z m 12.16866,-8.0068 c -0.39933,-0.152 -0.77582,-0.4197 -1.38332,-0.9834 l -0.57603,-0.5346 -0.51371,0.2323 c -2.03628,0.921 -4.19388,1.0441 -7.77855,0.444 -0.66595,-0.1115 -1.26531,-0.2213 -1.3319,-0.244 -0.16096,-0.055 0.6628,-0.5233 1.45298,-0.8261 0.91272,-0.3497 1.84408,-0.54 4.19751,-0.8578 1.17651,-0.1588 2.1936,-0.305 2.2602,-0.3248 0.0666,-0.02 0.61146,-0.1275 1.21082,-0.2391 0.59935,-0.1117 1.56195,-0.3321 2.13911,-0.4899 4.90762,-1.3412 6.79601,-1.6394 8.1665,-1.2894 0.25887,0.066 1.43611,0.2635 2.61609,0.4387 2.22008,0.3296 3.11052,0.52 4.00313,0.856 0.5192,0.1954 1.66585,0.767 1.62315,0.809 -0.0123,0.012 -0.42201,-0.032 -0.91038,-0.098 -1.02629,-0.1387 -2.06017,-0.094 -2.76123,0.1194 l -0.46382,0.1412 0.97519,0.3439 c 1.04114,0.3671 1.8126,0.7296 1.83342,0.8615 0.007,0.044 -0.36857,0.2726 -0.83474,0.5072 -1.67843,0.8445 -3.38165,1.0849 -6.46359,0.912 -1.02428,-0.057 -1.95419,-0.1289 -2.06631,-0.1589 -0.20358,-0.055 -0.20334,-0.055 0.15926,-0.3894 0.69259,-0.6384 1.37065,-0.8891 3.44664,-1.2745 1.71138,-0.3177 2.88918,-0.6788 2.78166,-0.8528 -0.0212,-0.034 -0.37422,-0.1448 -0.78453,-0.2455 -1.10483,-0.2712 -2.60286,-0.2572 -4.21696,0.039 -0.66595,0.1223 -1.37428,0.2935 -1.57407,0.3804 -0.25572,0.1112 -0.67572,0.4793 -1.419,1.2437 -1.30478,1.3419 -1.59852,1.5056 -2.77391,1.5454 -0.44986,0.015 -0.87243,-0.012 -1.01361,-0.066 z"
     id="path3165"
     inkscape:connector-curvature="0" />
  <text
     xml:space="preserve"
     style="font-size:30.81239128px;font-style:normal;font-weight:normal;line-height:125%;letter-spacing:0px;word-spacing:0px;fill:#ffffff;fill-opacity:1;stroke:none;font-family:Sans"
     x="32.135101"
     y="49.540447"
     id="text3167"
     sodipodi:linespacing="125%"><tspan
       sodipodi:role="line"
       id="tspan3169"
       x="32.135101"
       y="49.540447"
       style="font-style:normal;font-variant:normal;font-weight:normal;font-stretch:normal;fill:#ffffff;font-family:monofur;-inkscape-font-specification:monofur">MANF.ORG</tspan></text>
  <text
     xml:space="preserve"
     style="font-size:22px;font-style:normal;font-weight:normal;line-height:125%;letter-spacing:0px;word-spacing:0px;fill:#000000;fill-opacity:1;stroke:none;font-family:Sans"
     x="656.19507"
     y="63.588745"
     id="text3173"
     sodipodi:linespacing="125%"><tspan
       sodipodi:role="line"
       id="tspan3175"
       x="656.19507"
       y="63.588745" /></text>
</svg>
